<svg width="17" height="15" viewBox="0 0 17 15" fill="none" xmlns="http://www.w3.org/2000/svg">
<path d="M3.41675 1.99999C3.65986 1.99999 3.89302 1.90341 4.06493 1.7315C4.23684 1.5596 4.33341 1.32644 4.33341 1.08332C4.33341 0.840208 4.23684 0.60705 4.06493 0.435142C3.89302 0.263234 3.65986 0.166656 3.41675 0.166656H1.58341C1.3403 0.166656 1.10714 0.263234 0.935234 0.435142C0.763325 0.60705 0.666748 0.840208 0.666748 1.08332V13.9167C0.666748 14.1598 0.763325 14.3929 0.935234 14.5648C1.10714 14.7367 1.3403 14.8333 1.58341 14.8333H3.41675C3.65986 14.8333 3.89302 14.7367 4.06493 14.5648C4.23684 14.3929 4.33341 14.1598 4.33341 13.9167C4.33341 13.6735 4.23684 13.4404 4.06493 13.2685C3.89302 13.0966 3.65986 13 3.41675 13H2.50008V1.99999H3.41675ZM16.0851 6.96832L13.5001 3.30166C13.3599 3.10403 13.1472 2.96995 12.9084 2.92873C12.6696 2.8875 12.4243 2.94249 12.2259 3.08166C12.1268 3.15113 12.0424 3.23955 11.9776 3.34181C11.9128 3.44408 11.8689 3.55816 11.8485 3.67748C11.828 3.79679 11.8314 3.91898 11.8584 4.03698C11.8854 4.15498 11.9356 4.26647 12.0059 4.36499L13.5826 6.58332H6.16675C5.92363 6.58332 5.69048 6.6799 5.51857 6.85181C5.34666 7.02372 5.25008 7.25688 5.25008 7.49999C5.25008 7.7431 5.34666 7.97626 5.51857 8.14817C5.69048 8.32008 5.92363 8.41666 6.16675 8.41666H13.5001L11.8501 10.6167C11.7779 10.713 11.7253 10.8225 11.6954 10.9392C11.6656 11.0558 11.6589 11.1771 11.676 11.2963C11.693 11.4155 11.7333 11.5301 11.7946 11.6337C11.856 11.7373 11.9371 11.8278 12.0334 11.9C12.1921 12.019 12.3851 12.0833 12.5834 12.0833C12.7257 12.0833 12.8661 12.0502 12.9934 11.9865C13.1206 11.9229 13.2314 11.8305 13.3167 11.7167L16.0667 8.04999C16.1841 7.89495 16.2492 7.70659 16.2525 7.51215C16.2558 7.3177 16.1972 7.12725 16.0851 6.96832Z" fill="black"/>
</svg>
