<svg width="16" height="21" viewBox="0 0 16 21" fill="none" xmlns="http://www.w3.org/2000/svg">
<path d="M8 16C7.4696 16 6.9609 15.7893 6.5858 15.4142C6.2107 15.0391 6 14.5304 6 14C6 12.89 6.89 12 8 12C8.5304 12 9.0391 12.2107 9.4142 12.5858C9.7893 12.9609 10 13.4696 10 14C10 14.5304 9.7893 15.0391 9.4142 15.4142C9.0391 15.7893 8.5304 16 8 16ZM14 19V9H2V19H14ZM14 7C14.5304 7 15.0391 7.21071 15.4142 7.58579C15.7893 7.96086 16 8.46957 16 9V19C16 19.5304 15.7893 20.0391 15.4142 20.4142C15.0391 20.7893 14.5304 21 14 21H2C1.46957 21 0.96086 20.7893 0.58579 20.4142C0.21071 20.0391 0 19.5304 0 19V9C0 7.89 0.89 7 2 7H3V5C3 3.67392 3.52678 2.40215 4.46447 1.46447C5.40215 0.52678 6.6739 0 8 0C8.6566 0 9.3068 0.12933 9.9134 0.3806C10.52 0.63188 11.0712 1.00017 11.5355 1.46447C11.9998 1.92876 12.3681 2.47995 12.6194 3.08658C12.8707 3.69321 13 4.34339 13 5V7H14ZM8 2C7.2044 2 6.4413 2.31607 5.87868 2.87868C5.31607 3.44129 5 4.20435 5 5V7H11V5C11 4.20435 10.6839 3.44129 10.1213 2.87868C9.5587 2.31607 8.7956 2 8 2Z" fill="#7C7C8A"/>
</svg>
